<svg xmlns="http://www.w3.org/2000/svg" version="1.1" xmlns:xlink="http://www.w3.org/1999/xlink" width="1000" height="1000"><style>
    #light-icon {
      display: inline;
    }
    #dark-icon {
      display: none;
    }

    @media (prefers-color-scheme: dark) {
      #light-icon {
        display: none;
      }
      #dark-icon {
        display: inline;
      }
    }
  </style><g id="light-icon"><svg xmlns="http://www.w3.org/2000/svg" version="1.1" xmlns:xlink="http://www.w3.org/1999/xlink" width="1000" height="1000"><g clip-path="url(#SvgjsClipPath1246)"><rect width="1000" height="1000" fill="#ffffff"></rect><g transform="matrix(2.5,0,0,2.5,0,0)"><svg xmlns="http://www.w3.org/2000/svg" width="400" height="400" viewBox="0 0 400 400" fill="none"><path d="M0 201.5C0 91.0431 88.0431 0 198.5 0C308.957 0 400 88.0431 400 198.5C400 308.957 311.957 400 201.5 400C91.0431 400 0 311.957 0 201.5Z" fill="white"></path><path fill-rule="evenodd" clip-rule="evenodd" d="M157.365 228.289L244.552 228.405C244.776 223.297 245.495 212.685 244.17 208.319L157.814 208.25L157.365 228.289Z" fill="black"></path><path fill-rule="evenodd" clip-rule="evenodd" d="M186.083 265.628L257.53 265.744L257.754 246.053L186.42 245.821L186.083 265.628Z" fill="black"></path><path fill-rule="evenodd" clip-rule="evenodd" d="M167.11 188.745L270.598 188.954L270.8 169.054L167.065 168.961L167.11 188.745Z" fill="black"></path><path fill-rule="evenodd" clip-rule="evenodd" d="M251.243 89.0824L251.265 146.414C251.288 153.496 249.446 151.894 270.71 151.847L324.351 151.801C325.429 138.124 324.823 98.3473 324.89 82.1162L251.265 82.4413L251.243 89.0824Z" fill="black"></path><path fill-rule="evenodd" clip-rule="evenodd" d="M324.172 168.148L305.064 168.078C303.245 176.391 305.872 215.355 303.986 230.75C296.958 287.989 236.985 311.906 191.764 289.475C176.855 282.091 166.391 272.245 158.465 260.031C147.126 242.57 145.195 234.442 145.195 209.504C145.195 188.187 145.24 166.894 145.218 145.601C145.195 134.107 145.757 89.8485 145.016 82.2322L72.8726 82C71.6152 87.898 72.446 154.239 72.4235 166.081C72.4011 190.277 70.268 226.292 75.7915 247.98C98.1552 335.823 211.366 358.022 277.424 310.652C297.452 296.279 312.474 277.006 320.826 249.048C324.598 236.463 324.509 224.295 324.598 210.316C324.643 201.516 325.699 174.998 324.172 168.148Z" fill="black"></path><path fill-rule="evenodd" clip-rule="evenodd" d="M201.093 314.462C197.141 312.698 192.47 311.676 188.429 309.981C167.233 301.041 152.413 288.641 139.503 269.647C120.485 241.666 124.481 210.179 124.571 175.209C124.639 150.851 124.571 126.516 124.549 102.158L91.7218 102.042C91.5197 129.674 91.7218 156.958 91.6769 184.219C91.587 228.872 87.5005 247.286 116.398 281.234L126.861 290.894C138.29 299.764 152.548 307.125 166.896 310.956C173.722 312.767 195.053 316.924 201.093 314.462Z" fill="white"></path><path fill-rule="evenodd" clip-rule="evenodd" d="M272.327 133.782L306.771 133.852L306.928 102.225L272.26 101.877L272.327 133.782Z" fill="white"></path></svg></g></g><defs><clipPath id="SvgjsClipPath1246"><rect width="1000" height="1000" x="0" y="0" rx="500" ry="500"></rect></clipPath></defs></svg></g><g id="dark-icon"><svg xmlns="http://www.w3.org/2000/svg" version="1.1" xmlns:xlink="http://www.w3.org/1999/xlink" width="1000" height="1000"><g clip-path="url(#SvgjsClipPath1247)"><rect width="1000" height="1000" fill="#ffffff"></rect><g transform="matrix(2.5,0,0,2.5,0,0)"><svg xmlns="http://www.w3.org/2000/svg" width="400" height="400" viewBox="0 0 400 400" fill="none"><path d="M0 201.5C0 91.0431 88.0431 0 198.5 0C308.957 0 400 88.0431 400 198.5C400 308.957 311.957 400 201.5 400C91.0431 400 0 311.957 0 201.5Z" fill="black"></path><path fill-rule="evenodd" clip-rule="evenodd" d="M157.365 228.289L244.552 228.405C244.776 223.297 245.495 212.685 244.17 208.319L157.814 208.25L157.365 228.289Z" fill="white"></path><path fill-rule="evenodd" clip-rule="evenodd" d="M186.083 265.628L257.53 265.744L257.754 246.053L186.42 245.821L186.083 265.628Z" fill="white"></path><path fill-rule="evenodd" clip-rule="evenodd" d="M167.11 188.745L270.598 188.954L270.8 169.054L167.065 168.961L167.11 188.745Z" fill="white"></path><path fill-rule="evenodd" clip-rule="evenodd" d="M251.243 89.0824L251.265 146.414C251.288 153.496 249.446 151.894 270.71 151.847L324.351 151.801C325.429 138.124 324.823 98.3473 324.89 82.1162L251.265 82.4413L251.243 89.0824Z" fill="white"></path><path fill-rule="evenodd" clip-rule="evenodd" d="M324.172 168.148L305.064 168.078C303.245 176.391 305.872 215.355 303.986 230.75C296.958 287.989 236.985 311.906 191.764 289.475C176.855 282.091 166.391 272.245 158.465 260.031C147.126 242.57 145.195 234.442 145.195 209.504C145.195 188.187 145.24 166.894 145.218 145.601C145.195 134.107 145.757 89.8485 145.016 82.2322L72.8726 82C71.6152 87.898 72.446 154.239 72.4235 166.081C72.4011 190.277 70.268 226.292 75.7915 247.98C98.1552 335.823 211.366 358.022 277.424 310.652C297.452 296.279 312.474 277.006 320.826 249.048C324.598 236.463 324.509 224.295 324.598 210.316C324.643 201.516 325.699 174.998 324.172 168.148Z" fill="white"></path><path fill-rule="evenodd" clip-rule="evenodd" d="M201.093 314.462C197.141 312.698 192.47 311.676 188.429 309.981C167.233 301.041 152.413 288.641 139.503 269.647C120.485 241.666 124.481 210.179 124.571 175.209C124.639 150.851 124.571 126.516 124.549 102.158L91.7218 102.042C91.5197 129.674 91.7218 156.958 91.6769 184.219C91.587 228.872 87.5005 247.286 116.398 281.234L126.861 290.894C138.29 299.764 152.548 307.125 166.896 310.956C173.722 312.767 195.053 316.924 201.093 314.462Z" fill="black"></path><path fill-rule="evenodd" clip-rule="evenodd" d="M272.327 133.782L306.771 133.852L306.928 102.225L272.26 101.877L272.327 133.782Z" fill="black"></path></svg></g></g><defs><clipPath id="SvgjsClipPath1247"><rect width="1000" height="1000" x="0" y="0" rx="500" ry="500"></rect></clipPath></defs></svg></g></svg>