<svg width="915" height="291" viewBox="0 0 915 291" fill="none" xmlns="http://www.w3.org/2000/svg">
<path d="M378.5 221C389.333 221 398 216.417 404.5 207.25C411 198.083 414.25 185.667 414.25 170V91C412.75 87.6667 407.5 86 398.5 86V80.75H438.5V86C429.5 86 424.25 87.6667 422.75 91V165C422.75 186.667 417.917 202.833 408.25 213.5C398.75 224.167 386.75 229.5 372.25 229.5C332.25 229.5 312.25 208 312.25 165V91C310.75 87.6667 305.5 86 296.5 86V80.75H359.75V86C350.75 86 345.5 87.6667 344 91V168.5C344 185.5 346.917 198.5 352.75 207.5C358.583 216.5 367.167 221 378.5 221ZM444.973 227V221.75C453.973 221.75 459.223 220.083 460.723 216.75V132C451.723 131.333 446.473 131 444.973 131V125.25C448.139 125.25 455.806 123.5 467.973 120C480.139 116.333 488.139 114.5 491.973 114.5V125C500.306 118 509.473 114.5 519.473 114.5C535.473 114.5 547.889 117.5 556.723 123.5C565.556 129.333 569.973 138.167 569.973 150V216.75C571.473 220.083 576.723 221.75 585.723 221.75V227H522.973V221.75C531.973 221.75 537.223 220.083 538.723 216.75V148.25C538.723 140.75 536.973 134.667 533.473 130C530.139 125.333 524.973 123 517.973 123C507.639 123 498.973 126.333 491.973 133V216.75C493.473 220.083 498.723 221.75 507.723 221.75V227H444.973ZM594.143 227V221.75C603.143 221.75 608.393 220.083 609.893 216.75V132C601.226 131.333 595.976 131 594.143 131V125.25C597.309 125.25 604.976 123.5 617.143 120C629.309 116.333 637.309 114.5 641.143 114.5V216.75C642.643 220.083 647.893 221.75 656.893 221.75V227H594.143ZM624.893 98.5C620.893 98.5 616.809 97.0833 612.643 94.25C608.643 91.25 606.643 87.75 606.643 83.75C606.643 80.25 608.476 77 612.143 74C615.976 71 619.976 69.5 624.143 69.5C628.143 69.5 632.143 71 636.143 74C640.309 76.8333 642.393 80.3333 642.393 84.5C642.393 88 640.476 91.25 636.643 94.25C632.976 97.0833 629.059 98.5 624.893 98.5ZM711.932 227L672.182 127.25C670.682 123.917 665.432 122.25 656.432 122.25V117H713.682V122.25C708.848 122.25 705.348 122.583 703.182 123.25L732.932 196.5L761.432 125C759.098 123.167 754.432 122.25 747.432 122.25V117H788.432V122.25C779.265 122.25 774.015 123.917 772.682 127.25L732.932 227H711.932ZM816.688 135.5C820.521 135.5 822.438 138.917 822.438 145.75C822.438 148.583 821.021 150.75 818.188 152.25C815.354 153.75 812.354 154.5 809.188 154.5C805.854 154.5 802.854 153.333 800.188 151C797.688 148.667 796.438 145.667 796.438 142C796.438 133.5 800.604 126.833 808.938 122C817.438 117 828.438 114.5 841.938 114.5C857.771 114.5 870.104 118.5 878.938 126.5C887.771 134.333 892.188 144.333 892.188 156.5V206C892.188 211.333 893.021 215.25 894.688 217.75C896.521 220.25 898.688 221.5 901.188 221.5C903.354 221.5 905.271 220.917 906.938 219.75C908.771 218.583 909.688 217.167 909.688 215.5H914.188C914.188 224.5 905.021 229 886.688 229C878.188 229 871.604 226 866.938 220C856.938 226.333 845.354 229.5 832.188 229.5C804.354 229.5 790.438 219.333 790.438 199C790.438 194.833 791.854 191.083 794.688 187.75C797.688 184.417 802.188 181.583 808.188 179.25C814.187 176.917 819.521 175.083 824.188 173.75C829.021 172.417 835.604 170.917 843.938 169.25C852.271 167.417 857.938 166.083 860.938 165.25C860.938 149.583 859.604 138.75 856.938 132.75C854.438 126.583 848.604 123.5 839.438 123.5C833.938 123.5 828.938 124.667 824.438 127C820.104 129.167 817.521 132 816.688 135.5ZM863.438 214C861.771 209.5 860.938 204.5 860.938 199V170.75C846.771 175.083 837.438 178.667 832.938 181.5C825.938 186.167 822.438 192.167 822.438 199.5C822.438 207.167 824.021 212.667 827.188 216C830.521 219.333 834.271 221 838.438 221C845.771 221 854.104 218.667 863.438 214Z" fill="white"/>
<path fill-rule="evenodd" clip-rule="evenodd" d="M85.365 166.289L172.552 166.405C172.776 161.297 173.495 150.685 172.17 146.319L85.8141 146.25L85.365 166.289Z" fill="white"/>
<path fill-rule="evenodd" clip-rule="evenodd" d="M114.083 203.628L185.53 203.744L185.754 184.053L114.42 183.821L114.083 203.628Z" fill="white"/>
<path fill-rule="evenodd" clip-rule="evenodd" d="M95.1098 126.745L198.598 126.954L198.8 107.054L95.0649 106.961L95.1098 126.745Z" fill="white"/>
<path fill-rule="evenodd" clip-rule="evenodd" d="M179.243 27.0824L179.265 84.4137C179.288 91.496 177.446 89.8937 198.71 89.8473L252.351 89.8009C253.429 76.124 252.823 36.3473 252.89 20.1162L179.265 20.4413L179.243 27.0824Z" fill="white"/>
<path fill-rule="evenodd" clip-rule="evenodd" d="M252.172 106.148L233.064 106.078C231.245 114.391 233.872 153.355 231.986 168.75C224.958 225.989 164.985 249.906 119.764 227.475C104.855 220.091 94.3913 210.245 86.4652 198.031C75.1262 180.57 73.1952 172.442 73.1952 147.504C73.1952 126.187 73.2401 104.894 73.2177 83.6009C73.1952 72.1068 73.7566 27.8485 73.0156 20.2322L0.872588 20C-0.384806 25.898 0.445972 92.2389 0.423519 104.081C0.401065 128.277 -1.73201 164.292 3.79154 185.98C26.1552 273.823 139.366 296.022 205.424 248.652C225.452 234.279 240.474 215.006 248.826 187.048C252.598 174.463 252.509 162.295 252.598 148.316C252.643 139.516 253.699 112.998 252.172 106.148Z" fill="white"/>
<path fill-rule="evenodd" clip-rule="evenodd" d="M129.093 252.462C125.141 250.698 120.47 249.676 116.429 247.981C95.2328 239.041 80.4135 226.641 67.5027 207.647C48.4847 179.666 52.4814 148.179 52.5712 113.209C52.6386 88.8509 52.5712 64.5159 52.5487 40.1576L19.7218 40.0415C19.5197 67.6739 19.7218 94.9579 19.6769 122.219C19.587 166.872 15.5005 185.286 44.3981 219.234L54.8614 228.894C66.2903 237.764 80.5482 245.125 94.896 248.956C101.722 250.767 123.053 254.924 129.093 252.462Z" fill="black"/>
<path fill-rule="evenodd" clip-rule="evenodd" d="M200.327 71.7819L234.771 71.8515L234.928 40.2253L200.26 39.877L200.327 71.7819Z" fill="black"/>
</svg>
