<svg width="901" height="292" viewBox="0 0 901 292" fill="none" xmlns="http://www.w3.org/2000/svg">
<path d="M110.5 291L112.5 290L22.5 220V63L0.5 51V232.5L110.5 291Z" fill="white" stroke="white"/>
<path d="M143.5 291L141.5 290L231.5 220V63L253.5 51V232.5L143.5 291Z" fill="white" stroke="white"/>
<circle cx="127.5" cy="171" r="15" fill="white"/>
<path d="M167.228 178.316L128.5 208.374V273L220.61 197.353V16L167.228 52.0702V178.316Z" fill="white" stroke="white"/>
<path d="M87.8816 178.316L126.609 208.374V273L34.5 197.353V16L87.8816 52.0702V178.316Z" fill="white" stroke="white"/>
<path d="M365 221C375.833 221 384.5 216.417 391 207.25C397.5 198.083 400.75 185.667 400.75 170V91C399.25 87.6667 394 86 385 86V80.75H425V86C416 86 410.75 87.6667 409.25 91V165C409.25 186.667 404.417 202.833 394.75 213.5C385.25 224.167 373.25 229.5 358.75 229.5C318.75 229.5 298.75 208 298.75 165V91C297.25 87.6667 292 86 283 86V80.75H346.25V86C337.25 86 332 87.6667 330.5 91V168.5C330.5 185.5 333.417 198.5 339.25 207.5C345.083 216.5 353.667 221 365 221ZM431.473 227V221.75C440.473 221.75 445.723 220.083 447.223 216.75V132C438.223 131.333 432.973 131 431.473 131V125.25C434.639 125.25 442.306 123.5 454.473 120C466.639 116.333 474.639 114.5 478.473 114.5V125C486.806 118 495.973 114.5 505.973 114.5C521.973 114.5 534.389 117.5 543.223 123.5C552.056 129.333 556.473 138.167 556.473 150V216.75C557.973 220.083 563.223 221.75 572.223 221.75V227H509.473V221.75C518.473 221.75 523.723 220.083 525.223 216.75V148.25C525.223 140.75 523.473 134.667 519.973 130C516.639 125.333 511.473 123 504.473 123C494.139 123 485.473 126.333 478.473 133V216.75C479.973 220.083 485.223 221.75 494.223 221.75V227H431.473ZM580.643 227V221.75C589.643 221.75 594.893 220.083 596.393 216.75V132C587.726 131.333 582.476 131 580.643 131V125.25C583.809 125.25 591.476 123.5 603.643 120C615.809 116.333 623.809 114.5 627.643 114.5V216.75C629.143 220.083 634.393 221.75 643.393 221.75V227H580.643ZM611.393 98.5C607.393 98.5 603.309 97.0833 599.143 94.25C595.143 91.25 593.143 87.75 593.143 83.75C593.143 80.25 594.976 77 598.643 74C602.476 71 606.476 69.5 610.643 69.5C614.643 69.5 618.643 71 622.643 74C626.809 76.8333 628.893 80.3333 628.893 84.5C628.893 88 626.976 91.25 623.143 94.25C619.476 97.0833 615.559 98.5 611.393 98.5ZM698.432 227L658.682 127.25C657.182 123.917 651.932 122.25 642.932 122.25V117H700.182V122.25C695.348 122.25 691.848 122.583 689.682 123.25L719.432 196.5L747.932 125C745.598 123.167 740.932 122.25 733.932 122.25V117H774.932V122.25C765.765 122.25 760.515 123.917 759.182 127.25L719.432 227H698.432ZM803.188 135.5C807.021 135.5 808.938 138.917 808.938 145.75C808.938 148.583 807.521 150.75 804.688 152.25C801.854 153.75 798.854 154.5 795.688 154.5C792.354 154.5 789.354 153.333 786.688 151C784.188 148.667 782.938 145.667 782.938 142C782.938 133.5 787.104 126.833 795.438 122C803.938 117 814.938 114.5 828.438 114.5C844.271 114.5 856.604 118.5 865.438 126.5C874.271 134.333 878.688 144.333 878.688 156.5V206C878.688 211.333 879.521 215.25 881.188 217.75C883.021 220.25 885.188 221.5 887.688 221.5C889.854 221.5 891.771 220.917 893.438 219.75C895.271 218.583 896.188 217.167 896.188 215.5H900.688C900.688 224.5 891.521 229 873.188 229C864.688 229 858.104 226 853.438 220C843.438 226.333 831.854 229.5 818.688 229.5C790.854 229.5 776.938 219.333 776.938 199C776.938 194.833 778.354 191.083 781.188 187.75C784.188 184.417 788.688 181.583 794.688 179.25C800.687 176.917 806.021 175.083 810.688 173.75C815.521 172.417 822.104 170.917 830.438 169.25C838.771 167.417 844.438 166.083 847.438 165.25C847.438 149.583 846.104 138.75 843.438 132.75C840.938 126.583 835.104 123.5 825.938 123.5C820.438 123.5 815.438 124.667 810.938 127C806.604 129.167 804.021 132 803.188 135.5ZM849.938 214C848.271 209.5 847.438 204.5 847.438 199V170.75C833.271 175.083 823.938 178.667 819.438 181.5C812.438 186.167 808.938 192.167 808.938 199.5C808.938 207.167 810.521 212.667 813.688 216C817.021 219.333 820.771 221 824.938 221C832.271 221 840.604 218.667 849.938 214Z" fill="white"/>
</svg>
