<svg width="1000" height="400" viewBox="0 0 1000 400" fill="none" xmlns="http://www.w3.org/2000/svg">
<path d="M0 0C330 0 660 0 1000 0C1000 132 1000 264 1000 400C670 400 340 400 0 400C0 268 0 136 0 0Z" fill="#FBFBFB"/>
<path d="M183 334L185 333L95 263V106L73 94V275.5L183 334Z" fill="black" stroke="black"/>
<path d="M216 334L214 333L304 263V106L326 94V275.5L216 334Z" fill="black" stroke="black"/>
<circle cx="200" cy="214" r="15" fill="black"/>
<path d="M239.728 221.316L201 251.374V316L293.11 240.353V59L239.728 95.0702V221.316Z" fill="black" stroke="black"/>
<path d="M160.382 221.316L199.11 251.374V316L107 240.353V59L160.382 95.0702V221.316Z" fill="black" stroke="black"/>
<path d="M437.5 264C448.333 264 457 259.417 463.5 250.25C470 241.083 473.25 228.667 473.25 213V134C471.75 130.667 466.5 129 457.5 129V123.75H497.5V129C488.5 129 483.25 130.667 481.75 134V208C481.75 229.667 476.917 245.833 467.25 256.5C457.75 267.167 445.75 272.5 431.25 272.5C391.25 272.5 371.25 251 371.25 208V134C369.75 130.667 364.5 129 355.5 129V123.75H418.75V129C409.75 129 404.5 130.667 403 134V211.5C403 228.5 405.917 241.5 411.75 250.5C417.583 259.5 426.167 264 437.5 264ZM503.973 270V264.75C512.973 264.75 518.223 263.083 519.723 259.75V175C510.723 174.333 505.473 174 503.973 174V168.25C507.139 168.25 514.806 166.5 526.973 163C539.139 159.333 547.139 157.5 550.973 157.5V168C559.306 161 568.473 157.5 578.473 157.5C594.473 157.5 606.889 160.5 615.723 166.5C624.556 172.333 628.973 181.167 628.973 193V259.75C630.473 263.083 635.723 264.75 644.723 264.75V270H581.973V264.75C590.973 264.75 596.223 263.083 597.723 259.75V191.25C597.723 183.75 595.973 177.667 592.473 173C589.139 168.333 583.973 166 576.973 166C566.639 166 557.973 169.333 550.973 176V259.75C552.473 263.083 557.723 264.75 566.723 264.75V270H503.973ZM653.143 270V264.75C662.143 264.75 667.393 263.083 668.893 259.75V175C660.226 174.333 654.976 174 653.143 174V168.25C656.309 168.25 663.976 166.5 676.143 163C688.309 159.333 696.309 157.5 700.143 157.5V259.75C701.643 263.083 706.893 264.75 715.893 264.75V270H653.143ZM683.893 141.5C679.893 141.5 675.809 140.083 671.643 137.25C667.643 134.25 665.643 130.75 665.643 126.75C665.643 123.25 667.476 120 671.143 117C674.976 114 678.976 112.5 683.143 112.5C687.143 112.5 691.143 114 695.143 117C699.309 119.833 701.393 123.333 701.393 127.5C701.393 131 699.476 134.25 695.643 137.25C691.976 140.083 688.059 141.5 683.893 141.5ZM770.932 270L731.182 170.25C729.682 166.917 724.432 165.25 715.432 165.25V160H772.682V165.25C767.848 165.25 764.348 165.583 762.182 166.25L791.932 239.5L820.432 168C818.098 166.167 813.432 165.25 806.432 165.25V160H847.432V165.25C838.265 165.25 833.015 166.917 831.682 170.25L791.932 270H770.932ZM875.688 178.5C879.521 178.5 881.438 181.917 881.438 188.75C881.438 191.583 880.021 193.75 877.188 195.25C874.354 196.75 871.354 197.5 868.188 197.5C864.854 197.5 861.854 196.333 859.188 194C856.688 191.667 855.438 188.667 855.438 185C855.438 176.5 859.604 169.833 867.938 165C876.438 160 887.438 157.5 900.938 157.5C916.771 157.5 929.104 161.5 937.938 169.5C946.771 177.333 951.188 187.333 951.188 199.5V249C951.188 254.333 952.021 258.25 953.688 260.75C955.521 263.25 957.688 264.5 960.188 264.5C962.354 264.5 964.271 263.917 965.938 262.75C967.771 261.583 968.688 260.167 968.688 258.5H973.188C973.188 267.5 964.021 272 945.688 272C937.188 272 930.604 269 925.938 263C915.938 269.333 904.354 272.5 891.188 272.5C863.354 272.5 849.438 262.333 849.438 242C849.438 237.833 850.854 234.083 853.688 230.75C856.688 227.417 861.188 224.583 867.188 222.25C873.187 219.917 878.521 218.083 883.188 216.75C888.021 215.417 894.604 213.917 902.938 212.25C911.271 210.417 916.938 209.083 919.938 208.25C919.938 192.583 918.604 181.75 915.938 175.75C913.438 169.583 907.604 166.5 898.438 166.5C892.938 166.5 887.938 167.667 883.438 170C879.104 172.167 876.521 175 875.688 178.5ZM922.438 257C920.771 252.5 919.938 247.5 919.938 242V213.75C905.771 218.083 896.438 221.667 891.938 224.5C884.938 229.167 881.438 235.167 881.438 242.5C881.438 250.167 883.021 255.667 886.188 259C889.521 262.333 893.271 264 897.438 264C904.771 264 913.104 261.667 922.438 257Z" fill="black"/>
</svg>
